<?xml version="1.0" encoding="utf-8"?>
<!-- Generator: Adobe Illustrator 21.0.0, SVG Export Plug-In . SVG Version: 6.00 Build 0)  -->
<svg version="1.1" id="Capa_1" xmlns="http://www.w3.org/2000/svg" xmlns:xlink="http://www.w3.org/1999/xlink" x="0px" y="0px"
	 viewBox="0 0 134 103" style="enable-background:new 0 0 134 103;" xml:space="preserve">
<style type="text/css">
	.st0{fill:#FFFFFF;}
	.st1{fill:none;stroke:#000000;stroke-width:7;stroke-linecap:round;stroke-miterlimit:10;}
</style>
<g>
	<g>
		<path class="st0" d="M103.1,24.3L37.4,81.9c-1.4,1.3-3.7,1.1-4.9-0.3c-1.3-1.4-1.1-3.7,0.3-4.9l65.6-57.6c1.4-1.3,3.7-1.1,4.9,0.3
			C104.6,20.8,104.5,23.1,103.1,24.3z"/>
	</g>
	<g>
		<path class="st0" d="M103.4,81.6c-1.3,1.4-3.5,1.6-4.9,0.3L32.8,24.3c-1.4-1.3-1.6-3.5-0.3-4.9c1.3-1.4,3.5-1.6,4.9-0.3l65.6,57.6
			C104.5,77.9,104.6,80.2,103.4,81.6z"/>
	</g>
	<g>
		<path class="st1" d="M56.6,76.5"/>
	</g>
</g>
</svg>
