<?xml version="1.0" encoding="utf-8"?>
<!-- Generator: Adobe Illustrator 21.0.0, SVG Export Plug-In . SVG Version: 6.00 Build 0)  -->
<svg version="1.1" id="Capa_1" xmlns="http://www.w3.org/2000/svg" xmlns:xlink="http://www.w3.org/1999/xlink" x="0px" y="0px"
	 viewBox="0 0 556 235" style="enable-background:new 0 0 556 235;" xml:space="preserve">
<style type="text/css">
	.st0{fill:#FFFFFF;}
</style>
<g>
	<path d="M85.7,144.7V90.9c0-1.6-0.2-2.7-0.7-3.2S83.5,87,82,87h-2.7v-9.2h24.3h32.7v13.5v13.5h-8.5v-3.5c0-5.2-1-8.8-3.1-11
		c-2-2.1-5.6-3.2-10.5-3.2h-10.6v24.2h4.9c1.7,0,2.9-0.4,3.6-1.3c0.7-0.8,1.1-2.3,1.1-4.3v-5.6h8.4v15.6v15.7h-8.4V126
		c0-2-0.4-3.4-1.1-4.3c-0.7-0.8-1.9-1.2-3.6-1.2h-4.9v23.8c0,1.6,0.3,2.7,0.9,3.2s1.9,0.7,3.8,0.7h3.5v9.2H95.6H79.4v-9.2H82
		c1.4,0,2.4-0.3,3-0.8C85.4,147,85.7,146,85.7,144.7z"/>
	<path d="M166.5,157.5v-9.2h2.6c1.4,0,2.4-0.3,3-0.8s0.9-1.5,0.9-2.8V90.9c0-1.6-0.2-2.7-0.7-3.2s-1.5-0.7-3-0.7h-2.7v-9.2h16.2H199
		V87h-3.2c-1.8,0-3,0.3-3.8,0.8c-0.7,0.5-1.1,1.5-1.1,2.8v57.7h6.3c4.6,0,7.9-1,9.8-3s2.8-5.4,2.8-10.3v-7.2h8.5v14.8v14.8h-27.4
		L166.5,157.5L166.5,157.5L166.5,157.5z"/>
	<path d="M257.8,150.6c-4-5.6-6-15.1-6-28.3v-9.9c0-12.5,2.1-21.6,6.3-27.4c4.2-5.8,10.8-8.7,19.8-8.7c9.3,0,16,2.8,20.1,8.5
		c4.1,5.6,6.1,14.7,6.1,27.2v0.4v9.9c0,13.3-2,22.7-6,28.3s-10.8,8.5-20.2,8.5C268.5,159.1,261.8,156.3,257.8,150.6z M284.8,144.9
		c1-3.3,1.5-10.8,1.5-22.6v-9.9c0-11.5-0.5-18.9-1.5-22.1s-3.3-4.9-6.8-4.9s-5.8,1.6-6.8,4.9c-1,3.2-1.5,10.6-1.5,22.1v9.9
		c0,11.8,0.5,19.3,1.5,22.6s3.3,5,6.8,5S283.8,148.2,284.8,144.9z"/>
	<path d="M342.8,144.7V90.9c0-1.6-0.2-2.7-0.7-3.2s-1.5-0.7-3-0.7h-2.7v-9.2h15.3H367V87h-2.6c-1.4,0-2.4,0.3-3,0.8
		s-0.9,1.5-0.9,2.8v27.2l18.3-27.6c0.8-1.2,1-2,0.5-2.5s-1.7-0.7-3.6-0.7h-2.4v-9.2h13.1h13.2V87h-4c-1.1,0-2,0.2-2.9,0.6
		s-1.6,1-2.1,1.8l-13.1,20.2l19.1,35.1c0.9,1.6,1.6,2.6,2,3s1.1,0.6,1.9,0.6h1.9v9.2h-14.7H373v-9.2h2.8c1.5,0,2.5-0.3,2.9-0.8
		s0.2-1.5-0.5-2.8L368,124.3l-7.4,11.5v9c0,1.3,0.3,2.2,0.9,2.8c0.6,0.5,1.6,0.8,3,0.8h2.6v9.2h-15.3h-15.3v-9.2h2.6
		c1.4,0,2.4-0.3,3-0.8C342.5,147,342.8,146,342.8,144.7z"/>
	<path d="M438.3,144.7V90.9c0-1.6-0.2-2.7-0.7-3.2s-1.5-0.7-3-0.7h-2.7v-9.2h15.3h15.3V87h-3.2c-1.2,0-2,0.3-2.5,0.8
		s-0.7,1.5-0.7,2.8v53.8c0,1.6,0.2,2.7,0.7,3.2s1.5,0.7,3,0.7h2.7v9.2h-15.3h-15.3v-9.2h2.6c1.4,0,2.4-0.3,3-0.8
		C438,147,438.3,146,438.3,144.7z"/>
	<g>
		<path d="M251.5,38.6c2.6,1,4.6,2.9,7.3,4.5c-1.1-2.1-3.1-2.7-4.3-4.4c0.4-0.7,0.9-1.6,1.4-2.3c0.6-0.8,1.2-1.5,2-2.3
			c-2.3,0.6-3.2,2.7-5.1,3.6c0.6-1.7,2.3-2.6,3.3-4.1c-0.1-0.3-0.3-0.7-0.5-1.2c1.3-1.3,2.6-2.6,4-4c0.4,0.1,0.8,0.3,1.2,0.4
			c1.3-1.1,2.5-2.2,3.7-3.3c0.1,0,0.2,0.1,0.5,0.2c-0.4,1-1.5,1.4-2.1,2.2s-1.2,1.6-1.5,2.6c0.7-0.6,1.4-1.2,2.1-1.8
			c0.7-0.5,1.6-0.9,2.5-1.5c1.4,1.5,2.7,3,4.1,4.5c0.1-0.1,0.2-0.1,0.2-0.2c-1.5-2.3-3-4.6-4.6-7.1c1.2-0.5,2.1-0.4,2.9,0.4
			c2,2,3.9,3.9,5.9,5.8c0.8,0.8,1.1,1.8,0.6,3.2c-1.4,1.4-3,3-4.7,4.7c0.6,0.6,1.2,1.2,1.7,1.7c8.6,8.6,17.1,17.1,25.7,25.7
			c0.7,0.7,1.3,1.5,1.8,2c0,1.9-1.3,2.6-2.2,3.5c-0.4,0.5-1.2,0.6-1.9,1c-9.9-9.9-19.6-19.6-29.5-29.5c-1.8,1.8-3.4,3.4-5.1,5.1
			c-0.7,0-1.4,0.1-1.9,0.1c-2.5-2.5-4.7-4.7-7-7C251.4,40.5,251.2,39.7,251.5,38.6z"/>
		<path d="M289.6,36.2c-0.4-1.2-0.8-2.1-1.2-3.3c-2.8-2.5-5.8-5.2-8.9-7.9c2.2-2.2,4.2-4.2,6.4-6.4c0.5,0.5,1.1,1,1.5,1.6
			c1.6,2.1,3.2,4.1,4.7,6.2c1,1.4,2.1,2.7,4.1,3c0.4-0.2,0.9-0.4,1.4-0.7c1.5,1.2,2.7,2.5,3.9,3.9c-0.3,0.6-0.6,1.1-0.9,1.7
			c0.4,0.9,0.6,2.1,1.2,3c2.4,3.7,4.9,7.4,7.3,11.1c0.4,0.6,0.7,1.3,1.1,1.9c-0.1,0.1-0.2,0.2-0.3,0.3c-1.6-1.1-3.2-2.2-4.7-3.3
			c-2.4-1.7-4.7-3.5-7.2-5.2c-1.1-0.7-2.3-1.2-3.6-1.8c-0.7,0.7-1.2,1.2-1.8,1.8c-9.6,9.6-19.2,19.2-28.8,28.8
			c-0.6,0.6-1.4,1.2-1.9,1.6c-1.9,0-2.6-1.3-3.5-2.2c-0.4-0.4-0.6-1.2-0.9-1.9C268.2,57.5,278.9,46.8,289.6,36.2z M296.2,30.7
			c-0.6-0.4-1.1-0.9-1.7-1.2c-1-0.4-1.7-0.9-2.2-1.8c-0.7-1.2-1.2-1.6-2.3-2.3c1,1.4,1.9,2.7,2.9,4.1
			C294,29.9,295.1,30.3,296.2,30.7c0.3,0.1,0.5,0.4,0.8,0.6c0-0.1,0.1-0.2,0.1-0.2C296.8,30.9,296.5,30.8,296.2,30.7z M303.7,41.2
			c-0.1,0.1-0.3,0.1-0.4,0.2c0.9,1.6,1.8,3.3,2.8,5c-1.2-0.6-2.3-1.3-3.5-1.9c1.6,1.5,3.2,3,5.7,4C306.6,45.8,305.1,43.5,303.7,41.2
			z M284.8,28.6c1.2,1.9,2.7,2.6,3.9,3.6c0.5,1.4,0.8,2.8,2.2,3.7c-0.6-1.4-1.2-2.7-1.8-4.2C287.9,30.9,286.5,29.9,284.8,28.6z
			 M285.2,20.6c-0.1-0.1-0.1-0.1-0.2-0.2c-1.2,1.2-2.4,2.4-3.6,3.6c0.1,0.1,0.1,0.1,0.2,0.2C282.8,23,284,21.8,285.2,20.6z"/>
		<path class="st0" d="M295,65.5c0.1,0,0.1-0.1,0.2-0.1c-0.1-0.2-0.2-0.4-0.4-0.5c-3.3-3.4-6.6-6.9-10-10.3
			c-3.2-3.2-6.4-6.3-9.7-9.5c-1.2-1.1-2.5-2-3.7-3c-0.1,0.1-0.1,0.2-0.2,0.2C279.1,50.1,287.1,57.8,295,65.5z"/>
	</g>
	<g>
		<path d="M497,191.1H47c-1.7,0-3-1.3-3-3V53.8c0-1.7,1.3-3,3-3h194.2c1.7,0,3,1.3,3,3s-1.3,3-3,3H50v128.3h444V56.8H320.6
			c-1.7,0-3-1.3-3-3s1.3-3,3-3H497c1.7,0,3,1.3,3,3v134.3C500,189.7,498.7,191.1,497,191.1z"/>
	</g>
</g>
</svg>
