<?xml version="1.0" encoding="utf-8"?>
<!-- Generator: Adobe Illustrator 21.0.0, SVG Export Plug-In . SVG Version: 6.00 Build 0)  -->
<svg version="1.1" id="Capa_1" xmlns="http://www.w3.org/2000/svg" xmlns:xlink="http://www.w3.org/1999/xlink" x="0px" y="0px"
	 viewBox="0 0 134 103" style="enable-background:new 0 0 134 103;" xml:space="preserve">
<style type="text/css">
	.st0{fill:none;stroke:#000000;stroke-width:7;stroke-linecap:round;stroke-miterlimit:10;}
</style>
<g>
	<g>
		<path d="M72.2,28H24.3c-1.9,0-3.5-1.6-3.5-3.5s1.6-3.5,3.5-3.5h47.9c1.9,0,3.5,1.6,3.5,3.5S74.2,28,72.2,28z"/>
	</g>
	<g>
		<path d="M111.6,54H24.3c-1.9,0-3.5-1.6-3.5-3.5s1.6-3.5,3.5-3.5h87.3c1.9,0,3.5,1.6,3.5,3.5S113.5,54,111.6,54z"/>
	</g>
	<g>
		<path d="M111.6,80h-55c-1.9,0-3.5-1.6-3.5-3.5s1.6-3.5,3.5-3.5h55c1.9,0,3.5,1.6,3.5,3.5S113.5,80,111.6,80z"/>
	</g>
	<g>
		<path class="st0" d="M56.6,76.5"/>
	</g>
</g>
</svg>
